<svg width="20" height="16" viewBox="0 0 20 16" fill="none" xmlns="http://www.w3.org/2000/svg">
<g id="1">
<g id="logo-twitter 2">
<g id="Group">
<path id="Vector" d="M19.7929 1.85558C19.0506 2.18546 18.2672 2.39164 17.4425 2.51534C18.2672 2.02052 18.9269 1.23705 19.2156 0.288646C18.4321 0.742233 17.5662 1.07211 16.6178 1.27829C15.8755 0.494822 14.8034 0 13.6488 0C11.4221 0 9.60779 1.81435 9.60779 4.04104C9.60779 4.37093 9.64903 4.65957 9.7315 4.94822C6.39145 4.78328 3.38128 3.17511 1.36076 0.700998C1.03088 1.31953 0.824703 1.97929 0.824703 2.72152C0.824703 4.12352 1.5257 5.36057 2.63905 6.1028C1.97929 6.06157 1.36076 5.89663 0.783468 5.60798V5.64922C0.783468 7.6285 2.18546 9.27791 4.04105 9.64903C3.71116 9.7315 3.34005 9.77273 2.96893 9.77273C2.72152 9.77273 2.43287 9.7315 2.18546 9.69026C2.72152 11.2984 4.20599 12.4943 5.9791 12.4943C4.5771 13.5664 2.84523 14.2261 0.948408 14.2261C0.618527 14.2261 0.288646 14.2261 0 14.1849C1.81435 15.3395 3.91734 15.9992 6.22651 15.9992C13.6901 15.9992 17.7724 9.81397 17.7724 4.4534C17.7724 4.28846 17.7724 4.08228 17.7724 3.91734C18.5558 3.38128 19.2568 2.68029 19.7929 1.85558Z" fill="white"/>
</g>
</g>
</g>
</svg>
