<svg width="24" height="24" viewBox="0 0 24 24" fill="none" xmlns="http://www.w3.org/2000/svg">
<g id="3">
<g id="logo-instagram 1">
<g id="Group">
<path id="Vector" d="M11.9917 2.16218C15.1956 2.16218 15.575 2.17418 16.8407 2.23189C17.6016 2.24121 18.3554 2.38094 19.0691 2.64502C19.5867 2.84463 20.0568 3.15042 20.4491 3.54269C20.8413 3.93496 21.1471 4.40502 21.3467 4.92262C21.6108 5.63637 21.7505 6.39011 21.7598 7.15109C21.817 8.41674 21.8296 8.79615 21.8296 12C21.8296 15.2038 21.8176 15.5833 21.7598 16.8489C21.7505 17.6099 21.6108 18.3636 21.3467 19.0774C21.1471 19.595 20.8413 20.065 20.4491 20.4573C20.0568 20.8496 19.5867 21.1554 19.0691 21.355C18.3554 21.6191 17.6016 21.7588 16.8407 21.7681C15.5756 21.8252 15.1962 21.8378 11.9917 21.8378C8.78732 21.8378 8.40791 21.8258 7.14283 21.7681C6.38185 21.7588 5.62811 21.6191 4.91436 21.355C4.39676 21.1554 3.9267 20.8496 3.53443 20.4573C3.14216 20.065 2.83637 19.595 2.63676 19.0774C2.37268 18.3636 2.23294 17.6099 2.22363 16.8489C2.16649 15.5833 2.15392 15.2038 2.15392 12C2.15392 8.79615 2.16592 8.41674 2.22363 7.15109C2.23294 6.39011 2.37268 5.63637 2.63676 4.92262C2.83637 4.40502 3.14216 3.93496 3.53443 3.54269C3.9267 3.15042 4.39676 2.84463 4.91436 2.64502C5.62811 2.38094 6.38185 2.24121 7.14283 2.23189C8.40848 2.17475 8.78789 2.16218 11.9917 2.16218ZM11.9917 0C8.73475 0 8.32449 0.0137136 7.04455 0.0719965C6.04862 0.0918058 5.06327 0.280376 4.1304 0.629684C3.33015 0.931193 2.60532 1.40368 2.0065 2.01419C1.39544 2.61323 0.922548 3.33847 0.620851 4.13923C0.271542 5.0721 0.0829727 6.05745 0.0631634 7.05338C0.00602325 8.33217 -0.00769043 8.74244 -0.00769043 11.9994C-0.00769043 15.2564 0.00602317 15.6667 0.0643061 16.9466C0.0841154 17.9425 0.272685 18.9279 0.621994 19.8608C0.923356 20.6614 1.39586 21.3867 2.0065 21.9858C2.60566 22.5965 3.33088 23.069 4.13154 23.3703C5.06441 23.7196 6.04976 23.9082 7.04569 23.928C8.32563 23.9851 8.73418 24 11.9929 24C15.2516 24 15.6601 23.9863 16.9401 23.928C17.936 23.9082 18.9214 23.7196 19.8542 23.3703C20.6511 23.0614 21.3747 22.5896 21.9788 21.9851C22.583 21.3806 23.0543 20.6567 23.3626 19.8596C23.7119 18.9268 23.9005 17.9414 23.9203 16.9455C23.9775 15.6667 23.9912 15.2564 23.9912 11.9994C23.9912 8.74244 23.9775 8.33217 23.9192 7.05224C23.8994 6.05631 23.7108 5.07096 23.3615 4.13809C23.0601 3.33743 22.5876 2.6122 21.977 2.01305C21.3778 1.4024 20.6526 0.929903 19.8519 0.628541C18.9191 0.279233 17.9337 0.0906631 16.9378 0.0708538C15.659 0.0137137 15.2487 0 11.9917 0Z" fill="white"/>
<path id="Vector_2" d="M11.9924 5.83984C10.7737 5.83984 9.58235 6.20124 8.56902 6.87833C7.55569 7.55542 6.76589 8.51779 6.2995 9.64374C5.83311 10.7697 5.71109 12.0087 5.94885 13.204C6.18661 14.3993 6.77348 15.4973 7.63525 16.359C8.49702 17.2208 9.59499 17.8077 10.7903 18.0454C11.9856 18.2832 13.2246 18.1612 14.3505 17.6948C15.4765 17.2284 16.4389 16.4386 17.1159 15.4253C17.793 14.4119 18.1544 13.2206 18.1544 12.0018C18.1544 10.3676 17.5052 8.80025 16.3496 7.64465C15.194 6.48905 13.6267 5.83984 11.9924 5.83984ZM11.9924 16.0016C11.2014 16.0016 10.428 15.7671 9.77026 15.3276C9.1125 14.8881 8.59983 14.2634 8.2971 13.5325C7.99436 12.8016 7.91515 11.9974 8.06949 11.2215C8.22382 10.4456 8.60476 9.73293 9.16415 9.17354C9.72353 8.61416 10.4362 8.23322 11.2121 8.07888C11.988 7.92455 12.7922 8.00376 13.5231 8.30649C14.254 8.60923 14.8787 9.1219 15.3182 9.77966C15.7577 10.4374 15.9922 11.2107 15.9922 12.0018C15.9922 13.0627 15.5708 14.08 14.8207 14.8301C14.0706 15.5802 13.0533 16.0016 11.9924 16.0016Z" fill="white"/>
<path id="Vector_3" d="M18.3967 7.03514C19.192 7.03514 19.8367 6.39046 19.8367 5.5952C19.8367 4.79995 19.192 4.15527 18.3967 4.15527C17.6015 4.15527 16.9568 4.79995 16.9568 5.5952C16.9568 6.39046 17.6015 7.03514 18.3967 7.03514Z" fill="white"/>
</g>
</g>
</g>
</svg>
