<svg width="23" height="24" viewBox="0 0 23 24" fill="none" xmlns="http://www.w3.org/2000/svg">
<g id="4">
<g id="logo-github 1">
<g id="Group">
<path id="Vector" fill-rule="evenodd" clip-rule="evenodd" d="M11.4693 0.800781C5.10854 0.800781 -0.00878906 5.91811 -0.00878906 12.2789C-0.00878906 17.3484 3.29117 21.6527 7.8346 23.1831C8.4085 23.2788 8.59981 22.944 8.59981 22.6092C8.59981 22.3223 8.59981 21.6049 8.59981 20.6484C5.3955 21.3658 4.72594 19.118 4.72594 19.118C4.19986 17.7788 3.43465 17.4441 3.43465 17.4441C2.38249 16.7267 3.5303 16.7267 3.5303 16.7267C4.67811 16.8223 5.29984 17.9223 5.29984 17.9223C6.30418 19.6919 7.97807 19.1658 8.64763 18.8788C8.74328 18.1136 9.03024 17.6354 9.36502 17.3484C6.83026 17.0615 4.15203 16.0571 4.15203 11.6572C4.15203 10.4137 4.58246 9.36155 5.34767 8.59634C5.25202 8.30939 4.82159 7.16158 5.44332 5.53551C5.44332 5.53551 6.39983 5.24856 8.59981 6.73115C9.50849 6.49202 10.5128 6.34854 11.4693 6.34854C12.4258 6.34854 13.4302 6.49202 14.3389 6.73115C16.5388 5.24856 17.4954 5.53551 17.4954 5.53551C18.1171 7.11375 17.7345 8.26156 17.591 8.59634C18.3084 9.40938 18.7866 10.4137 18.7866 11.6572C18.7866 16.0571 16.1084 17.0136 13.5258 17.3006C13.9563 17.6354 14.291 18.3528 14.291 19.4049C14.291 20.9353 14.291 22.1788 14.291 22.5614C14.291 22.8484 14.4823 23.231 15.1041 23.1353C19.6475 21.6527 22.9475 17.3484 22.9475 12.2789C22.9475 5.91811 17.8301 0.800781 11.4693 0.800781Z" fill="white"/>
</g>
</g>
</g>
</svg>
