<svg width="184" height="184" viewBox="0 0 184 184" fill="none" xmlns="http://www.w3.org/2000/svg">
<path d="M92 184C41.1898 184 9.01636e-06 142.81 1.12373e-05 92C1.34583e-05 41.1898 41.1898 -6.24243e-06 92 -4.02145e-06C142.81 -1.80046e-06 184 41.1898 184 92C184 142.81 142.81 184 92 184Z" fill="#111013"/>
<path d="M88.4989 157.381C86.3547 157.232 85.0224 158.715 84.7993 160.883L84.6055 157.226L83.5694 157.154L83.2221 162.147L87.6255 162.453L87.7206 161.086L84.9433 160.893C85.3817 159.579 86.1623 158.751 87.7884 158.864C89.6879 158.996 90.5272 160.443 90.385 162.486C90.2459 164.487 89.2269 165.833 87.2122 165.693C85.6581 165.585 84.8032 164.571 84.6014 163.313L83.1211 164.222C83.662 166.01 85.0905 167.092 87.1195 167.233C90.1127 167.442 91.9147 165.441 92.1119 162.606C92.3251 159.541 90.974 157.553 88.4989 157.381Z" fill="white"/>
<path d="M73.2377 154.927L72.8869 156.327L77.938 157.593L77.2645 160.279L73.0809 159.231L72.7301 160.63L76.9137 161.679L76.2892 164.169L71.2381 162.903L70.8873 164.302L77.5195 165.965L79.8699 156.59L73.2377 154.927Z" fill="white"/>
<path d="M66.2843 152.357L63.0813 159.929L60.3445 158.772L59.7825 160.1L66.7441 163.045L67.3061 161.716L64.5825 160.564L67.7855 152.992L66.2843 152.357Z" fill="white"/>
<path d="M54.1769 145.595L48.5776 153.473L49.9062 154.417L55.5055 146.539L54.1769 145.595Z" fill="white"/>
<path d="M49.7126 142.219L46.1165 146.143L45.0126 147.518L45.2897 145.914L46.1925 138.993L45.0864 137.979L38.5568 145.105L39.7585 146.206L43.345 142.292L44.5082 140.873L44.1868 142.633L43.2681 149.422L44.3848 150.445L50.9144 143.32L49.7126 142.219Z" fill="white"/>
<path d="M36.6584 127.237L29.7375 131.676L28.1332 129.175L26.919 129.954L31 136.316L32.2142 135.538L30.6176 133.048L37.5385 128.609L36.6584 127.237Z" fill="white"/>
<path d="M31.9757 118.188C30.8549 115.592 28.0889 114.681 25.5197 115.79C22.9638 116.894 21.7303 119.532 22.8511 122.128C23.9776 124.737 26.7379 125.634 29.2938 124.531C31.863 123.421 33.1022 120.797 31.9757 118.188ZM30.5397 118.792C31.3403 120.646 30.4541 122.16 28.6133 122.955C26.7858 123.744 25.063 123.357 24.2624 121.503C23.4618 119.649 24.3669 118.142 26.1945 117.353C28.0353 116.558 29.7391 116.938 30.5397 118.792Z" fill="white"/>
<path d="M28.3706 107.43C27.7677 104.86 26.1816 103.973 23.3307 104.642L17.9379 105.907L18.3069 107.48L23.7137 106.211C25.5816 105.773 26.4816 106.199 26.8506 107.772C27.213 109.317 26.6029 110.127 24.7351 110.565L19.3283 111.833L19.6973 113.406L25.0901 112.141C27.9409 111.472 28.9604 109.944 28.3706 107.43Z" fill="white"/>
<path d="M26.6444 96.0867C26.5127 93.9558 25.3133 92.5558 23.3998 91.9948L22.4503 93.4699C23.9088 93.6832 25.0006 94.5118 25.1029 96.1675C25.2257 98.1544 23.8582 99.1783 21.8714 99.3011C19.8701 99.4248 18.4013 98.5762 18.2785 96.5893C18.1761 94.9336 19.1432 93.9778 20.5787 93.5855L19.4548 92.2387C17.6106 93.0319 16.6071 94.5681 16.7388 96.6989C16.9222 99.6648 19.1994 101.201 21.9782 101.029C24.7569 100.857 26.8277 99.0526 26.6444 96.0867Z" fill="white"/>
<path d="M26.5324 87.0399L22.3485 86.5539L22.8843 81.94L27.0683 82.426L27.2564 80.8069L17.6562 79.6918L17.4681 81.311L21.4515 81.7736L20.9156 86.3875L16.9322 85.9248L16.7441 87.5439L26.3444 88.659L26.5324 87.0399Z" fill="white"/>
<path d="M27.7147 67.0264L26.5532 66.5906L25.2812 69.9805L26.4427 70.4163L27.7147 67.0264Z" fill="white"/>
<path d="M36.9019 56.598C38.0953 54.8105 37.4684 52.9177 35.6969 51.6483L38.9685 53.2947L39.5452 52.4309L35.3822 49.6517L32.9313 53.3228L34.071 54.0837L35.6168 51.7682C36.5403 52.801 36.8717 53.8895 35.9666 55.2451C34.9094 56.8288 33.237 56.8397 31.5335 55.7023C29.8659 54.589 29.2027 53.0363 30.3241 51.3567C31.1891 50.061 32.4935 49.8218 33.6854 50.2707L33.6306 48.5343C31.8105 48.117 30.1617 48.8201 29.0324 50.5117C27.3664 53.0071 28.2089 55.5641 30.5723 57.142C33.1277 58.848 35.5243 58.6615 36.9019 56.598Z" fill="white"/>
<path d="M46.4855 44.6881L45.4398 43.6944L41.8525 47.4691L39.8449 45.5611L42.8161 42.4347L41.7705 41.441L38.7993 44.5674L36.9381 42.7985L40.5255 39.0238L39.4798 38.0301L34.7695 42.9863L41.7751 49.6444L46.4855 44.6881Z" fill="white"/>
<path d="M52.2295 39.8503L47.2245 33.3268L49.5821 31.518L48.704 30.3735L42.707 34.9746L43.5851 36.1191L45.9313 34.319L50.9363 40.8425L52.2295 39.8503Z" fill="white"/>
<path d="M64.0236 32.6718L59.9297 23.917L58.4531 24.6074L62.5471 33.3623L64.0236 32.6718Z" fill="white"/>
<path d="M69.169 30.4391L67.545 25.37L66.8982 23.7293L68.1542 24.7659L73.716 28.9823L75.1447 28.5246L72.196 19.3206L70.6437 19.818L72.2633 24.8733L72.9184 26.5871L71.5496 25.4352L66.1104 21.2703L64.668 21.7324L67.6167 30.9364L69.169 30.4391Z" fill="white"/>
<path d="M88.4949 26.529L88.0509 18.3187L91.0182 18.1582L90.9403 16.7178L83.3926 17.126L83.4705 18.5664L86.4233 18.4067L86.8672 26.617L88.4949 26.529Z" fill="white"/>
<path d="M98.9851 26.9381C101.795 27.2535 103.959 25.3046 104.271 22.5236C104.581 19.7569 102.903 17.3767 100.094 17.0613C97.2698 16.7443 95.1203 18.6949 94.8097 21.4615C94.4976 24.2425 96.1611 26.6211 98.9851 26.9381ZM99.1732 25.3915C97.1663 25.1663 96.2919 23.6456 96.5156 21.653C96.7377 19.6748 97.9291 18.3715 99.936 18.5968C101.943 18.822 102.801 20.3554 102.579 22.3337C102.356 24.3262 101.18 25.6168 99.1732 25.3915Z" fill="white"/>
<path d="M109.938 29.0746C112.47 29.8228 114.026 28.8838 114.856 26.0756L116.426 20.7635L114.877 20.3056L113.303 25.6315C112.759 27.4713 111.943 28.0425 110.394 27.5846C108.872 27.1349 108.47 26.2039 109.014 24.364L110.588 19.0381L109.039 18.5802L107.469 23.8923C106.639 26.7005 107.462 28.3427 109.938 29.0746Z" fill="white"/>
<path d="M120.703 33.1766C122.616 34.1238 124.428 33.7812 125.867 32.4014L125.061 30.8435C124.15 32.0018 122.887 32.5358 121.401 31.7998C119.617 30.9166 119.41 29.2208 120.293 27.4368C121.183 25.6398 122.65 24.7889 124.434 25.6721C125.921 26.4081 126.268 27.7228 125.893 29.1629L127.621 28.8593C127.852 26.865 127.019 25.2297 125.106 24.2825C122.443 22.9641 119.977 24.1737 118.742 26.6688C117.507 29.1638 118.04 31.8582 120.703 33.1766Z" fill="white"/>
<path d="M128.514 37.4778L131.017 34.0897L134.753 36.8494L132.25 40.2375L133.562 41.206L139.304 33.432L137.993 32.4635L135.61 35.6891L131.874 32.9294L134.256 29.7038L132.945 28.7354L127.203 36.5093L128.514 37.4778Z" fill="white"/>
<path d="M145.188 48.2125L146.138 47.4151L143.811 44.6415L142.86 45.4389L145.188 48.2125Z" fill="white"/>
<path d="M149.89 61.4602C150.858 63.3793 152.814 63.766 154.791 62.8496L151.747 64.8857L152.214 65.8131L156.684 63.5591L154.696 59.6179L153.472 60.235L154.726 62.7208C153.372 63.0158 152.262 62.768 151.528 61.3126C150.671 59.6125 151.485 58.1517 153.314 57.2293C155.104 56.3264 156.782 56.5141 157.691 58.3173C158.393 59.7083 157.959 60.9613 156.981 61.7776L158.519 62.5851C159.779 61.2066 159.979 59.4254 159.063 57.6094C157.712 54.9304 155.072 54.4041 152.534 55.6837C149.791 57.0673 148.773 59.2449 149.89 61.4602Z" fill="white"/>
<path d="M155.459 75.3477L156.839 74.9284L155.325 69.9458L157.975 69.1407L159.229 73.2676L160.609 72.8483L159.356 68.7214L161.812 67.975L163.326 72.9576L164.706 72.5383L162.719 65.9961L153.471 68.8054L155.459 75.3477Z" fill="white"/>
<path d="M156.89 82.7285L165.033 81.5919L165.444 84.535L166.873 84.3356L165.828 76.8494L164.399 77.0488L164.808 79.9775L156.665 81.1141L156.89 82.7285Z" fill="white"/>
<path d="M157.368 96.8369L167.001 97.6188L167.133 95.9941L157.5 95.2122L157.368 96.8369Z" fill="white"/>
<path d="M156.763 102.598L161.972 103.695L163.718 103.945L162.196 104.524L155.779 107.271L155.47 108.739L164.928 110.73L165.264 109.135L160.069 108.041L158.256 107.763L159.934 107.143L166.245 104.477L166.557 102.995L157.099 101.003L156.763 102.598Z" fill="white"/>
<path d="M150.524 121.553L157.865 125.256L156.527 127.909L157.815 128.559L161.219 121.81L159.931 121.16L158.599 123.8L151.258 120.098L150.524 121.553Z" fill="white"/>
<path d="M145.239 130.033C143.575 132.32 144.2 135.164 146.463 136.81C148.714 138.448 151.613 138.166 153.276 135.88C154.948 133.582 154.315 130.749 152.063 129.111C149.8 127.465 146.91 127.735 145.239 130.033ZM146.49 130.961C147.678 129.328 149.432 129.32 151.054 130.499C152.663 131.67 153.207 133.35 152.019 134.984C150.831 136.617 149.074 136.605 147.464 135.434C145.843 134.254 145.302 132.595 146.49 130.961Z" fill="white"/>
<path d="M137.921 138.586C136.021 140.418 136.07 142.235 138.102 144.343L141.947 148.33L143.11 147.209L139.255 143.211C137.924 141.83 137.829 140.839 138.992 139.717C140.134 138.616 141.142 138.726 142.474 140.107L146.329 144.105L147.492 142.983L143.647 138.996C141.615 136.888 139.78 136.794 137.921 138.586Z" fill="white"/>
<path d="M128.892 146.062C127.125 147.26 126.531 149.005 127.022 150.938L128.775 151.004C128.216 149.64 128.373 148.278 129.746 147.347C131.394 146.23 132.971 146.885 134.089 148.533C135.214 150.192 135.232 151.889 133.584 153.006C132.211 153.937 130.896 153.592 129.828 152.556L129.241 154.209C130.863 155.392 132.696 155.474 134.463 154.275C136.922 152.607 137.084 149.865 135.521 147.561C133.958 145.257 131.351 144.394 128.892 146.062Z" fill="white"/>
<path d="M121.585 150.605L123.313 154.447L119.076 156.352L117.349 152.51L115.862 153.179L119.825 161.993L121.312 161.325L119.668 157.667L123.904 155.763L125.548 159.42L127.035 158.752L123.072 149.937L121.585 150.605Z" fill="white"/>
<path d="M103.739 159.927L103.962 161.147L107.523 160.496L107.3 159.276L103.739 159.927Z" fill="white"/>
<g clip-path="url(#clip0_70_1325)">
<path fill-rule="evenodd" clip-rule="evenodd" d="M77.2826 75.2711C79.2638 77.2523 81.5792 78.8605 84.0966 80.0039C86.614 81.1472 89.2842 81.8033 91.9546 81.9347C94.625 82.0662 97.2434 81.6703 99.6602 80.7698C102.077 79.8693 104.245 78.4818 106.04 76.6865L106.104 76.7504L106.104 76.7504L108.273 78.9189L108.273 78.9189L108.337 78.9828C106.541 80.7782 105.154 82.9461 104.253 85.363C103.353 87.7798 102.957 90.3982 103.088 93.0686C103.22 95.739 103.876 98.4092 105.019 100.927C106.163 103.444 107.771 105.759 109.752 107.741L107.535 109.958C99.3514 101.774 98.9562 91.3076 104.201 82.9904L79.36 107.832L77.1915 105.663L102.033 80.8218C93.7157 86.067 83.2494 85.6719 75.0656 77.4881L77.2826 75.2711Z" fill="white"/>
</g>
<defs>
<clipPath id="clip0_70_1325">
<rect width="40.8889" height="40.8889" fill="white" transform="translate(63.8184 92.291) rotate(-45)"/>
</clipPath>
</defs>
</svg>
