<svg width="56" height="56" viewBox="0 0 56 56" fill="none" xmlns="http://www.w3.org/2000/svg">
<path d="M28.0003 4.6665C15.1203 4.6665 4.66699 15.1198 4.66699 27.9998C4.66699 40.8798 15.1203 51.3332 28.0003 51.3332C40.8803 51.3332 51.3337 40.8798 51.3337 27.9998C51.3337 15.1198 40.8803 4.6665 28.0003 4.6665ZM19.9037 31.4298C20.5803 32.1065 20.5803 33.2265 19.9037 33.9032C19.5537 34.2532 19.1103 34.4165 18.667 34.4165C18.2237 34.4165 17.7803 34.2532 17.4303 33.9032L12.7637 29.2365C12.087 28.5598 12.087 27.4398 12.7637 26.7632L17.4303 22.0965C18.107 21.4198 19.227 21.4198 19.9037 22.0965C20.5803 22.7732 20.5803 23.8932 19.9037 24.5698L16.4737 27.9998L19.9037 31.4298ZM31.9437 23.2398L27.277 34.1365C26.997 34.7898 26.3437 35.1865 25.667 35.1865C25.4337 35.1865 25.2003 35.1398 24.9903 35.0465C24.1037 34.6732 23.6837 33.6465 24.0803 32.7365L28.747 21.8398C29.1203 20.9532 30.147 20.5332 31.0337 20.9298C31.9203 21.3265 32.317 22.3532 31.9437 23.2398ZM43.237 29.2365L38.5703 33.9032C38.2203 34.2532 37.777 34.4165 37.3337 34.4165C36.8903 34.4165 36.447 34.2532 36.097 33.9032C35.4203 33.2265 35.4203 32.1065 36.097 31.4298L39.527 27.9998L36.097 24.5698C35.4203 23.8932 35.4203 22.7732 36.097 22.0965C36.7737 21.4198 37.8937 21.4198 38.5703 22.0965L43.237 26.7632C43.9137 27.4398 43.9137 28.5598 43.237 29.2365Z" fill="#F0E4B0"/>
</svg>
