<svg width="250" height="56" viewBox="0 0 250 56" fill="none" xmlns="http://www.w3.org/2000/svg">
<path d="M28.0787 2.7444e-05C29.5227 0.0159573 30.9493 0.318012 32.2761 0.888757C33.6029 1.4595 34.8037 2.28763 35.8091 3.32536C41.4298 8.92897 47.0606 14.52 52.6384 20.1665C55.973 23.5296 56.8149 27.516 55.2169 31.9767C54.6674 33.5082 53.7046 34.7798 52.5401 35.9277C47.1631 41.2816 41.7986 46.6438 36.4468 52.0145C35.0101 53.4576 33.4978 54.7746 31.5141 55.3877C27.5368 56.6139 23.8216 56.0614 20.7844 53.1574C16.0459 48.6286 11.4712 43.9257 6.8284 39.296C5.6488 38.1202 4.46417 36.9496 3.2997 35.7637C-1.07336 31.3131 -1.11621 24.7028 3.26946 20.2699C8.8952 14.5856 14.5714 8.94915 20.2299 3.2976C21.2516 2.25081 22.4726 1.41966 23.8207 0.853269C25.1688 0.286881 26.6167 -0.00324901 28.0787 2.7444e-05ZM8.75658 38.0647C8.9683 38.2968 9.07164 38.423 9.18506 38.5365C13.417 42.7676 17.6338 47.0139 21.8884 51.2222C25.344 54.6409 30.6219 54.6712 34.08 51.2449C39.8066 45.5766 45.5012 39.8754 51.1639 34.1414C54.4229 30.8439 54.6674 25.9795 51.7966 22.5583C50.9694 21.6149 50.0918 20.7171 49.1677 19.8688C48.9043 19.6328 48.5679 19.4948 48.2149 19.4777C44.3309 19.4499 40.4443 19.4777 36.5602 19.4449C36.3497 19.4278 36.1391 19.4772 35.9582 19.5863C35.7773 19.6954 35.6352 19.8587 35.552 20.0529C34.506 21.8922 33.4272 23.7138 32.3837 25.5581C32.3156 25.7044 32.2039 25.8258 32.064 25.9058C31.924 25.9858 31.7627 26.0203 31.6024 26.0047C29.1978 25.9896 26.7933 25.9896 24.3887 26.0047C24.2179 26.0205 24.0465 25.9825 23.8983 25.8961C23.7501 25.8098 23.6326 25.6793 23.562 25.5228C22.3689 23.4338 21.165 21.3523 19.9501 19.2784C19.8568 19.1463 19.8067 18.9885 19.8067 18.8267C19.8067 18.665 19.8568 18.5072 19.9501 18.3751C21.165 16.2995 22.3689 14.2164 23.562 12.1256C23.6274 11.9786 23.7366 11.8553 23.8747 11.7727C24.0127 11.69 24.1728 11.6521 24.3332 11.6639C26.758 11.6807 29.1835 11.6807 31.6099 11.6639C31.7701 11.6477 31.9313 11.682 32.0709 11.7621C32.2106 11.8422 32.3217 11.964 32.3887 12.1105C33.4322 13.9523 34.5135 15.7739 35.5621 17.6132C35.6449 17.8079 35.7868 17.9717 35.9678 18.0813C36.1487 18.1908 36.3595 18.2407 36.5703 18.2237C39.9628 18.1985 43.3554 18.2111 46.7455 18.2086C46.9421 18.2086 47.1387 18.1909 47.4109 18.1758C47.35 18.0697 47.2809 17.9684 47.2042 17.8731C42.8135 13.483 38.4707 9.04251 34.012 4.72311C30.4127 1.24135 25.3188 1.39021 21.7422 4.92495C19.8291 6.81721 17.9337 8.73218 16.0282 10.6371C12.2197 14.4443 8.38607 18.2288 4.61036 22.0688C3.0662 23.659 2.20381 25.7902 2.20711 28.0078C2.2104 30.2254 3.07913 32.354 4.62801 33.9396C5.42953 34.7646 6.22096 35.6023 7.06029 36.3894C7.30794 36.6152 7.62566 36.7489 7.9601 36.7679C11.824 36.7931 15.6905 36.7805 19.5544 36.7931C19.7141 36.8088 19.8748 36.7745 20.0143 36.695C20.1538 36.6155 20.2652 36.4946 20.3332 36.3491C21.3868 34.4871 22.4681 32.6428 23.5292 30.7984C23.7233 30.4604 23.9199 30.2383 24.3811 30.2434C26.8058 30.2711 29.2306 30.261 31.6578 30.2434C31.808 30.2285 31.9592 30.2608 32.0902 30.3358C32.2212 30.4109 32.3255 30.525 32.3887 30.6622C33.591 32.7916 34.8261 34.9034 36.0233 37.0379C36.0772 37.1567 36.1051 37.2858 36.1051 37.4163C36.1051 37.5469 36.0772 37.6759 36.0233 37.7948C34.8387 39.9116 33.6112 42.0031 32.419 44.1174C32.348 44.2729 32.23 44.4022 32.0817 44.4868C31.9333 44.5715 31.7621 44.6073 31.5923 44.5892C29.2281 44.5716 26.8638 44.564 24.4996 44.5892C24.2905 44.6074 24.081 44.5597 23.9003 44.453C23.7196 44.3463 23.5767 44.1857 23.4914 43.9938C22.4832 42.1848 21.4145 40.3985 20.3987 38.587C20.3174 38.4037 20.1802 38.2508 20.0069 38.1502C19.8335 38.0496 19.6328 38.0064 19.4334 38.0269C16.124 38.0471 12.8146 38.0269 9.50517 38.0269C9.30605 38.0294 9.10693 38.0471 8.75658 38.0647ZM27.9577 42.3841C28.7592 42.3841 29.5633 42.4194 30.3623 42.3665C30.503 42.3497 30.6387 42.3041 30.761 42.2324C30.8833 42.1608 30.9895 42.0647 31.0731 41.9502C31.8947 40.5978 32.6635 39.2152 33.4675 37.8528C33.5583 37.7327 33.6086 37.587 33.6113 37.4364C33.614 37.2859 33.569 37.1384 33.4827 37.0152C32.6635 35.6351 31.8872 34.2398 31.0529 32.8648C30.9676 32.7521 30.8595 32.6586 30.7358 32.5903C30.612 32.5221 30.4753 32.4806 30.3346 32.4687C28.7744 32.4308 27.2117 32.4687 25.6489 32.4409C25.487 32.4273 25.3248 32.4647 25.1851 32.5479C25.0454 32.6312 24.9353 32.7561 24.8701 32.9052C24.0913 34.2827 23.2746 35.6401 22.5134 37.0278C22.4581 37.1582 22.4309 37.2989 22.4335 37.4406C22.4361 37.5823 22.4685 37.7219 22.5286 37.8503C23.2898 39.2379 24.0812 40.6079 24.9029 41.9603C24.9869 42.0749 25.0936 42.171 25.2163 42.2426C25.339 42.3142 25.4751 42.3598 25.6162 42.3766C26.395 42.4169 27.1764 42.3841 27.9577 42.3841ZM27.9325 23.7895C28.734 23.7895 29.5356 23.8198 30.332 23.7693C30.4728 23.7576 30.6096 23.7171 30.734 23.6503C30.8585 23.5834 30.9679 23.4917 31.0554 23.3808C31.8897 22.0133 32.666 20.6055 33.4852 19.233C33.5698 19.1094 33.6137 18.9624 33.6105 18.8126C33.6073 18.6628 33.5573 18.5177 33.4675 18.3978C32.6635 17.0354 31.8947 15.6528 31.0705 14.303C30.9878 14.1885 30.8816 14.093 30.759 14.023C30.6364 13.9529 30.5003 13.9099 30.3598 13.8968C28.7802 13.8598 27.199 13.8598 25.6162 13.8968C25.4748 13.9106 25.338 13.9542 25.2146 14.0246C25.0913 14.095 24.9842 14.1908 24.9004 14.3055C24.0661 15.6705 23.2671 17.0606 22.4908 18.4584C22.439 18.5721 22.4122 18.6955 22.4122 18.8204C22.4122 18.9454 22.439 19.0688 22.4908 19.1825C23.2772 20.6004 24.0904 22.0032 24.9306 23.3909C25.0098 23.4978 25.1102 23.587 25.2256 23.6531C25.341 23.7191 25.4689 23.7604 25.6011 23.7744C26.3698 23.8223 27.1512 23.7895 27.9325 23.7895Z" fill="#884FDB"/>
<path d="M16.8028 22.4542C17.6834 22.4542 18.5639 22.4741 19.4494 22.4542C19.62 22.4377 19.7913 22.4761 19.9381 22.5637C20.085 22.6513 20.1994 22.7835 20.2645 22.9406C20.974 24.2003 21.7212 25.4351 22.4331 26.6998C22.5031 26.8549 22.6196 26.9849 22.7668 27.072C22.9141 27.159 23.0848 27.1989 23.2558 27.1862C26.4424 27.1679 29.6223 27.1679 32.7956 27.1862C32.956 27.2018 33.1174 27.1677 33.2575 27.0887C33.3976 27.0096 33.5096 26.8894 33.578 26.7447C34.3151 25.4525 35.0874 24.1853 35.8421 22.8932C35.908 22.7479 36.0189 22.6272 36.1587 22.5486C36.2985 22.4701 36.46 22.4379 36.6195 22.4567C38.3806 22.4741 40.1416 22.4567 41.9026 22.4816C42.044 22.4928 42.1814 22.5334 42.3059 22.6009C42.4303 22.6684 42.5389 22.7612 42.6246 22.8732C43.5555 24.4065 44.457 25.9564 45.3291 27.5229C45.3795 27.633 45.4055 27.7525 45.4055 27.8734C45.4055 27.9943 45.3795 28.1138 45.3291 28.2239C44.4519 29.7871 43.5479 31.3353 42.6171 32.8686C42.5321 32.982 42.4238 33.0762 42.2993 33.1451C42.1749 33.2139 42.0371 33.2557 41.8951 33.2677C40.134 33.3026 38.373 33.2677 36.612 33.2951C36.4404 33.3075 36.2694 33.266 36.123 33.1764C35.9767 33.0869 35.8625 32.9538 35.7969 32.7962C35.0723 31.5216 34.305 30.2693 33.578 28.9972C33.5158 28.861 33.4123 28.7475 33.282 28.6723C33.1517 28.5972 33.001 28.5643 32.8509 28.5781C29.6508 28.5914 26.45 28.5914 23.2482 28.5781C23.078 28.5619 22.907 28.5992 22.7594 28.6847C22.6118 28.7702 22.495 28.8996 22.4256 29.0545C21.7186 30.3167 20.9689 31.549 20.2595 32.8137C20.1885 32.9683 20.0706 33.0971 19.9222 33.1821C19.7738 33.2671 19.6024 33.304 19.4318 33.2877C17.6657 33.2677 15.9005 33.2677 14.1361 33.2877C13.9757 33.3013 13.8151 33.2645 13.6769 33.1826C13.5388 33.1006 13.4301 32.9777 13.3663 32.8312C12.5135 31.3345 11.6329 29.8378 10.7499 28.3411C10.6531 28.2116 10.599 28.0556 10.595 27.8944C10.5909 27.7333 10.6371 27.5748 10.7273 27.4406C11.6254 25.9439 12.5135 24.4273 13.3789 22.9032C13.4431 22.756 13.5533 22.6331 13.6933 22.5528C13.8332 22.4724 13.9955 22.4387 14.1563 22.4567C15.0368 22.4691 15.9198 22.4542 16.8028 22.4542Z" fill="#884FDB"/>
<path d="M78.9223 25.7261H72V7.32372H79.0691C81.7924 7.32372 83.9204 8.15378 85.4533 9.81389C87.0024 11.474 87.777 13.7235 87.777 16.5623C87.777 19.401 86.9861 21.6339 85.4044 23.2608C83.8389 24.9043 81.6782 25.7261 78.9223 25.7261ZM75.6202 10.8598V22.19H79.0935C80.6427 22.19 81.8494 21.6505 82.7137 20.5714C83.578 19.4924 84.0101 18.1311 84.0101 16.4875C84.0101 14.8938 83.578 13.5574 82.7137 12.4784C81.8494 11.3993 80.6427 10.8598 79.0935 10.8598H75.6202Z" fill="#111013"/>
<path d="M91.8423 25.7261V7.32372H95.4869V25.7261H91.8423Z" fill="#111013"/>
<path d="M108.919 26C106.196 26 103.937 25.1118 102.144 23.3355C100.383 21.5426 99.5019 19.2765 99.5019 16.5374C99.5019 13.765 100.415 11.4823 102.242 9.68938C104.068 7.89646 106.343 7 109.066 7C110.501 7 111.863 7.27392 113.151 7.82176C114.455 8.35299 115.524 9.07514 116.355 9.9882L113.983 12.6278C112.629 11.2499 110.99 10.5609 109.066 10.5609C107.386 10.5609 105.992 11.1254 104.883 12.2543C103.774 13.3831 103.22 14.8025 103.22 16.5125C103.22 18.1892 103.758 19.6003 104.834 20.7457C105.943 21.8912 107.337 22.464 109.017 22.464C109.93 22.464 110.819 22.2896 111.683 21.941C112.548 21.5758 113.273 21.0944 113.86 20.4967V17.9817H108.87V14.7693H117.162V22.3394C114.863 24.7798 112.115 26 108.919 26Z" fill="#111013"/>
<path d="M121.351 25.7261V7.32372H124.996V25.7261H121.351Z" fill="#111013"/>
<path d="M133.536 25.7261V10.8847H128.375V7.32372H142.366V10.8847H137.205V25.7261H133.536Z" fill="#111013"/>
<path d="M158.851 25.7261H155.035L153.69 21.7418H147.379L145.985 25.7261H142.193L149.091 7.32372H152.051L158.851 25.7261ZM152.662 18.4548L150.559 12.329L148.406 18.4548H152.662Z" fill="#111013"/>
<path d="M174.896 25.7261H162.079V7.32372H165.723V22.19H174.896V25.7261Z" fill="#111013"/>
<path d="M183.355 25.7261H180.298L174.305 7.32372H178.268L181.912 19.6999L186.022 7.32372H188.321L192.504 19.6999L196.099 7.32372H200.062L194.094 25.7261H191.036L187.196 13.6737L183.355 25.7261Z" fill="#111013"/>
<path d="M216.992 25.7261H213.177L211.831 21.7418H205.52L204.126 25.7261H200.335L207.233 7.32372H210.192L216.992 25.7261ZM210.804 18.4548L208.7 12.329L206.548 18.4548H210.804Z" fill="#111013"/>
<path d="M234.04 25.7261H229.809L225.993 19.0275H223.84V25.7261H220.22V7.32372H227.142C229.148 7.32372 230.681 7.88816 231.741 9.01704C232.801 10.1459 233.331 11.5238 233.331 13.1507C233.331 14.3792 233.013 15.4832 232.377 16.4626C231.757 17.4255 230.852 18.1228 229.662 18.5544L234.04 25.7261ZM227.118 10.7353H223.84V15.7156H226.8C227.713 15.7156 228.406 15.4832 228.879 15.0183C229.368 14.5535 229.613 13.9476 229.613 13.2005C229.613 12.4867 229.385 11.8973 228.928 11.4325C228.488 10.9677 227.884 10.7353 227.118 10.7353Z" fill="#111013"/>
<path d="M250 25.7261H237.745V7.32372H250V10.7602H241.39V14.7195H249.364V18.156H241.39V22.2896H250V25.7261Z" fill="#111013"/>
<g opacity="0.8">
<path d="M75.0798 48.9908C74.1944 48.9908 73.4584 48.661 72.8718 48.0013C72.2906 47.3355 72 46.5048 72 45.5092C72 44.4952 72.3042 43.6584 72.9125 42.9987C73.5209 42.3329 74.2596 42 75.1287 42C75.6284 42 76.101 42.113 76.5464 42.339C76.9972 42.565 77.3611 42.8674 77.6382 43.2461L77.0597 43.8416C76.5545 43.2064 75.9136 42.8887 75.1368 42.8887C74.4905 42.8887 73.9419 43.1361 73.491 43.6309C73.051 44.1257 72.8311 44.7548 72.8311 45.5183C72.8311 46.2635 73.051 46.8835 73.491 47.3783C73.9364 47.8669 74.4769 48.1113 75.1124 48.1113C75.4655 48.1113 75.8131 48.0257 76.1553 47.8547C76.4975 47.6837 76.7935 47.4516 77.0434 47.1584V45.8115H75.0309V44.9686H77.8093V47.5615C77.076 48.5144 76.1662 48.9908 75.0798 48.9908Z" fill="#884FDB"/>
<path d="M85.5904 48.8901H81.5411V42.1191H82.3558V48.0013H85.5904V48.8901Z" fill="#884FDB"/>
<path d="M88.2473 45.5458C88.2473 44.5563 88.5515 43.7195 89.1599 43.0353C89.7737 42.3451 90.5069 42 91.3597 42C92.2125 42 92.9458 42.3451 93.5596 43.0353C94.1734 43.7256 94.4803 44.5502 94.4803 45.5092C94.4803 46.4682 94.1734 47.2928 93.5596 47.983C92.9458 48.661 92.2044 49 91.3353 49C90.4608 49 89.7275 48.6671 89.1354 48.0013C88.5434 47.3355 88.2473 46.517 88.2473 45.5458ZM93.6329 45.5183C93.6329 44.7731 93.4129 44.1501 92.973 43.6492C92.533 43.1483 91.9952 42.8979 91.3597 42.8979C90.7296 42.8979 90.1946 43.1514 89.7546 43.6584C89.3147 44.1654 89.0947 44.7853 89.0947 45.5183C89.0947 46.2452 89.312 46.8621 89.7465 47.3691C90.1756 47.8639 90.7134 48.1113 91.3597 48.1113C92.0061 48.1113 92.5439 47.8639 92.973 47.3691C93.4129 46.8743 93.6329 46.2574 93.6329 45.5183Z" fill="#884FDB"/>
<path d="M101.373 45.1885C101.731 45.2984 102.008 45.5153 102.204 45.839C102.405 46.1566 102.505 46.5262 102.505 46.9476C102.505 47.4791 102.34 47.9341 102.008 48.3128C101.683 48.6976 101.226 48.8901 100.64 48.8901H98.1546V42.1191H100.534C101.055 42.1191 101.46 42.2901 101.748 42.6322C102.041 42.9682 102.188 43.3621 102.188 43.8141C102.188 44.1257 102.114 44.4066 101.968 44.6571C101.821 44.9075 101.623 45.0846 101.373 45.1885ZM100.428 42.9712H98.9612V44.8586H100.403C100.691 44.8586 100.922 44.764 101.096 44.5746C101.27 44.3791 101.357 44.144 101.357 43.8691C101.357 43.6187 101.27 43.4079 101.096 43.2369C100.928 43.0598 100.705 42.9712 100.428 42.9712ZM98.9612 48.0288H100.509C100.868 48.0288 101.147 47.9158 101.348 47.6898C101.56 47.4638 101.666 47.195 101.666 46.8835C101.666 46.5476 101.558 46.2666 101.34 46.0406C101.128 45.8085 100.841 45.6924 100.477 45.6924H98.9612V48.0288Z" fill="#884FDB"/>
<path d="M110.644 48.8901H109.756L109.144 47.1309H106.855L106.244 48.8901H105.356L107.792 42.1191H108.232L110.644 48.8901ZM108.867 46.2696L108.004 43.7134L107.132 46.2696H108.867Z" fill="#884FDB"/>
<path d="M118.101 48.8901H114.052V42.1191H114.867V48.0013H118.101V48.8901Z" fill="#884FDB"/>
<path d="M127.939 48.8901H125.78V42.1191H128.021C128.874 42.1191 129.547 42.4245 130.041 43.0353C130.541 43.6523 130.791 44.4799 130.791 45.5183C130.791 46.5628 130.536 47.3844 130.025 47.983C129.52 48.5877 128.825 48.8901 127.939 48.8901ZM126.595 42.9895V48.0196H127.972C128.586 48.0196 129.069 47.7845 129.422 47.3141C129.77 46.8438 129.944 46.236 129.944 45.4908C129.944 44.7579 129.77 44.1592 129.422 43.695C129.069 43.2247 128.586 42.9895 127.972 42.9895H126.595Z" fill="#884FDB"/>
<path d="M134.501 48.8901V42.1191H135.315V48.8901H134.501Z" fill="#884FDB"/>
<path d="M142.075 48.9908C141.19 48.9908 140.454 48.661 139.867 48.0013C139.286 47.3355 138.995 46.5048 138.995 45.5092C138.995 44.4952 139.299 43.6584 139.908 42.9987C140.516 42.3329 141.255 42 142.124 42C142.624 42 143.096 42.113 143.542 42.339C143.992 42.565 144.356 42.8674 144.633 43.2461L144.055 43.8416C143.55 43.2064 142.909 42.8887 142.132 42.8887C141.486 42.8887 140.937 43.1361 140.486 43.6309C140.046 44.1257 139.826 44.7548 139.826 45.5183C139.826 46.2635 140.046 46.8835 140.486 47.3783C140.932 47.8669 141.472 48.1113 142.108 48.1113C142.461 48.1113 142.808 48.0257 143.15 47.8547C143.493 47.6837 143.789 47.4516 144.039 47.1584V45.8115H142.026V44.9686H144.804V47.5615C144.071 48.5144 143.161 48.9908 142.075 48.9908Z" fill="#884FDB"/>
<path d="M148.536 48.8901V42.1191H149.351V48.8901H148.536Z" fill="#884FDB"/>
<path d="M154.554 48.8901V43.0079H152.77V42.1191H157.153V43.0079H155.369V48.8901H154.554Z" fill="#884FDB"/>
<path d="M164.638 48.8901H163.75L163.138 47.1309H160.849L160.238 48.8901H159.35L161.786 42.1191H162.226L164.638 48.8901ZM162.861 46.2696L161.998 43.7134L161.126 46.2696H162.861Z" fill="#884FDB"/>
<path d="M172.095 48.8901H168.046V42.1191H168.861V48.0013H172.095V48.8901Z" fill="#884FDB"/>
<path d="M184.163 48.8901H183.275L182.664 47.1309H180.375L179.764 48.8901H178.875L181.312 42.1191H181.752L184.163 48.8901ZM182.387 46.2696L181.523 43.7134L180.652 46.2696H182.387Z" fill="#884FDB"/>
<path d="M190.062 48.9908C189.176 48.9908 188.44 48.661 187.854 48.0013C187.272 47.3355 186.982 46.5048 186.982 45.5092C186.982 44.4952 187.286 43.6584 187.894 42.9987C188.503 42.3329 189.241 42 190.111 42C190.61 42 191.083 42.113 191.528 42.339C191.979 42.565 192.343 42.8674 192.62 43.2461L192.042 43.8416C191.536 43.2064 190.895 42.8887 190.119 42.8887C189.472 42.8887 188.924 43.1361 188.473 43.6309C188.033 44.1257 187.813 44.7548 187.813 45.5183C187.813 46.2635 188.033 46.8835 188.473 47.3783C188.918 47.8669 189.459 48.1113 190.094 48.1113C190.447 48.1113 190.795 48.0257 191.137 47.8547C191.479 47.6837 191.775 47.4516 192.025 47.1584V45.8115H190.013V44.9686H192.791V47.5615C192.058 48.5144 191.148 48.9908 190.062 48.9908Z" fill="#884FDB"/>
<path d="M200.271 48.8901H196.523V42.1191H200.271V42.9895H197.338V45.0144H200.051V45.8848H197.338V48.0196H200.271V48.8901Z" fill="#884FDB"/>
<path d="M208.067 46.9476V42.1191H208.874V48.8901H208.45L204.841 44.089V48.8901H204.034V42.1191H204.401L208.067 46.9476Z" fill="#884FDB"/>
<path d="M215.651 48.9908C214.782 48.9908 214.048 48.6671 213.451 48.0196C212.853 47.3661 212.555 46.5353 212.555 45.5275C212.555 44.5013 212.859 43.6584 213.467 42.9987C214.076 42.3329 214.812 42 215.675 42C216.224 42 216.729 42.1374 217.191 42.4123C217.652 42.675 218.014 43.0323 218.274 43.4843L217.671 44.0524C217.161 43.2766 216.501 42.8887 215.691 42.8887C215.051 42.8887 214.507 43.1392 214.062 43.6401C213.617 44.1409 213.394 44.7731 213.394 45.5366C213.394 46.2818 213.611 46.8988 214.046 47.3874C214.48 47.87 215.026 48.1113 215.683 48.1113C216.085 48.1113 216.46 48.0105 216.808 47.8089C217.155 47.6073 217.454 47.3264 217.704 46.966L218.291 47.5249C218.003 47.9769 217.625 48.3342 217.158 48.5969C216.696 48.8595 216.194 48.9908 215.651 48.9908Z" fill="#884FDB"/>
<path d="M225.096 42.1191H226L223.939 46.4529V48.8901H223.124V46.4529L221.087 42.1191H221.991L223.531 45.5458L225.096 42.1191Z" fill="#884FDB"/>
</g>
</svg>
